<svg width="300" height="130" viewBox="0 0 300 130" fill="none" xmlns="http://www.w3.org/2000/svg">
<path fill-rule="evenodd" clip-rule="evenodd" d="M41.424 5.26646C40.0735 5.57012 39.0716 7.05907 37.3728 11.2877C36.6898 12.9876 35.9004 14.8546 35.6185 15.437C35.3367 16.019 35.1061 16.5743 35.1061 16.6709C35.1061 16.7675 34.7427 17.6221 34.2987 18.5699C33.8547 19.5177 33.271 21.0855 33.0021 22.0542C32.7331 23.0228 32.3459 24.0698 32.1419 24.3804C31.9378 24.691 31.582 25.6806 31.3513 26.5792C31.1208 27.4781 30.6515 28.7396 30.3086 29.383C29.9658 30.0261 29.6852 30.746 29.6852 30.9824C29.6852 31.9903 28.6834 35.1006 28.1878 35.6314C27.8912 35.949 27.5233 36.7917 27.3703 37.5041C27.2169 38.2168 26.8863 39.2738 26.6354 39.8533C26.3844 40.4328 25.9632 41.6024 25.6991 42.4523C25.4353 43.3023 24.8385 44.9828 24.373 46.1869C23.9074 47.391 23.2757 49.1295 22.9693 50.0503C22.6626 50.9711 22.2581 52.0722 22.0702 52.4971C21.7258 53.2752 21.1094 55.2265 20.6055 57.1332C20.4555 57.6998 20.0676 58.8107 19.7431 59.6019C19.4186 60.3931 18.9661 61.769 18.7376 62.6591C18.5089 63.5495 18.1519 64.6408 17.9439 65.084C17.3068 66.4421 16.7784 68.1119 16.7784 68.7664C16.7784 69.1087 16.4467 70.1082 16.0411 70.9878C15.6359 71.8671 15.1526 73.5139 14.9673 74.6472C14.7822 75.7805 14.3591 77.2872 14.0274 77.9955C13.6954 78.7038 13.2205 80.0492 12.9716 80.9857C12.4734 82.8597 11.8128 83.8094 9.35098 86.19C5.2275 90.1775 4.97117 92.1133 8.24228 94.5689C9.1628 95.2599 9.16461 95.1963 8.09747 99.5545C7.34397 102.632 7.32874 103.612 8.02054 104.489C8.99269 105.722 11.0389 105.326 11.5 103.814C11.5968 103.496 11.9657 102.599 12.3196 101.82C12.6732 101.041 13.1361 99.4179 13.348 98.2139C13.5597 97.0098 13.7964 95.6769 13.8738 95.2519C13.951 94.827 14.157 94.2475 14.3315 93.9641C14.506 93.6808 14.8602 92.7222 15.1188 91.8339C15.3772 90.9453 15.7817 90.0181 16.0174 89.7734C17.6202 88.1093 19.3998 87.2957 19.9968 87.9545C20.4571 88.4624 20.9439 90.3797 20.7847 91.0568C20.3125 93.0635 19.724 105.018 20.0043 106.911C20.4235 109.741 24.1536 110.705 26.7355 108.651C27.456 108.078 27.456 108.078 26.6991 106.816C24.738 103.547 26.213 86.3667 28.5784 84.9261C28.8321 84.7716 29.7369 84.2609 30.5887 83.7913C32.5852 82.691 33.309 82.2367 33.9445 81.6845C34.2285 81.4378 35.0532 80.7789 35.777 80.22C37.1039 79.196 38.2038 77.5301 38.2038 76.5449C38.2038 76.2515 38.9299 74.8648 39.8171 73.4635C41.7457 70.4171 42.3051 69.3796 42.3216 68.8176C42.3363 68.3161 44.2439 66.5341 44.7659 66.5341C46.1059 66.5341 46.2437 67.3263 45.4058 70.2077C42.2 81.2286 46.4244 86.4602 55.6281 82.8677C57.3429 82.1983 57.633 82.1651 61.3141 82.2153C65.048 82.2666 66.6492 82.0618 68.664 81.2757C69.0189 81.1374 70.0063 80.8142 70.8582 80.5579C71.71 80.3017 72.5812 79.9583 72.7942 79.795C73.0072 79.632 73.6461 79.2995 74.214 79.0566C75.8402 78.3609 75.9974 78.2468 76.4081 77.4654C76.6211 77.06 77.1141 76.3762 77.5039 75.9456C77.8937 75.5147 78.2133 75.0438 78.2138 74.8991C78.2146 74.7543 78.5473 74.2328 78.9536 73.7401C79.3597 73.2474 80.003 72.2648 80.3829 71.5565C81.7931 68.9276 84.3588 64.9887 84.6608 64.9887C85.3456 64.9887 85.3363 66.9161 84.6388 69.5192C84.3386 70.6398 83.9504 72.2519 83.7761 73.1019C83.6019 73.9518 83.3745 74.9099 83.271 75.2308C83.0546 75.8997 83.4899 77.425 84.0227 77.8662C84.2594 78.0622 85.5658 78.1564 87.8333 78.141C91.6814 78.115 91.6527 78.1029 92.8634 80.2264C93.5833 81.4895 93.0299 83.7246 91.4942 85.756C91.1589 86.1992 90.6026 87.1986 90.2577 87.9767C89.9128 88.7545 89.5022 89.4702 89.3452 89.5671C89.0091 89.7742 86.7344 94.2279 86.7321 94.683C86.731 94.8543 86.5596 95.3212 86.3508 95.7207C85.0299 98.2473 83.3451 104.904 82.8838 109.418C82.7534 110.693 82.5113 112.288 82.3453 112.963C81.8732 114.884 82.1143 122.592 82.6775 123.583C82.9189 124.008 83.1171 124.501 83.1181 124.678C83.1192 124.91 83.7315 125 85.3139 125C87.2313 125 87.508 124.943 87.508 124.549C87.5083 124.302 88.0803 123.607 88.7794 123.006C89.7149 122.203 90.195 121.529 90.5979 120.454C90.8992 119.651 91.3773 118.669 91.6604 118.272C91.9436 117.875 92.3951 116.938 92.6633 116.189C92.9315 115.439 93.4496 114.256 93.8143 113.559C94.1793 112.863 94.4778 112.046 94.4778 111.744C94.4778 111.443 94.9424 110.25 95.5103 109.094C96.0782 107.938 96.5428 106.828 96.5428 106.627C96.5428 106.426 96.8281 105.618 97.1771 104.832C97.5258 104.045 98.1128 102.205 98.4815 100.743C98.8501 99.2812 99.267 97.6794 99.4082 97.1836C99.934 95.3349 100.178 93.0565 100.371 88.2007C100.617 81.9797 100.429 82.2452 104.59 82.2452C107.307 82.2452 109.747 81.7764 110.114 81.1841C110.191 81.0594 110.536 80.9574 110.88 80.9574C111.75 80.9574 113.568 80.211 114.439 79.4963C115.449 78.6662 117.2 78.686 118.704 79.5439C120.057 80.3153 124.301 80.4832 125.627 79.8177C126.029 79.616 126.822 79.3332 127.39 79.1893C129.588 78.6324 131.278 78.0642 131.65 77.7577C132.176 77.3232 133.838 76.5789 134.283 76.5789C135.448 76.5789 135.549 75.1258 134.518 73.1974C134.108 72.4309 133.573 70.8209 133.33 69.6197C132.697 66.5029 130.544 62.4132 129.536 62.4132C129.43 62.4132 128.95 62.0204 128.469 61.54C127.539 60.6133 125.715 59.6918 124.346 59.4577C122.331 59.1133 119.886 61.5869 121.182 62.6599C121.866 63.2265 121.628 63.7097 120.398 64.2526C119.746 64.5401 118.559 65.4029 117.759 66.1699C116.181 67.6826 114.81 68.0761 114.501 67.1048C114.327 66.5568 110.375 62.4132 110.027 62.4132C109.894 62.4132 109.257 62.1329 108.611 61.7904C107.053 60.9641 105.634 61.2783 103.723 62.8724C103.279 63.2428 103.546 64.4736 104.07 64.4736C104.836 64.4736 104.134 65.6077 102.87 66.4151C100.53 67.9084 98.0917 71.2526 98.0917 72.969C98.0917 74.7162 96.9866 75.0413 95.5103 73.7282C94.8714 73.1601 94.0583 72.6256 93.7033 72.5404C90.519 71.7765 90.3003 70.6406 91.9147 63.2466C93.1393 57.6383 86.5746 55.0743 82.5482 59.588C80.9901 61.3348 80.2304 62.3405 79.6348 63.4457C78.8504 64.9014 77.5432 67.0868 76.9401 67.9507C76.6435 68.3756 75.9928 69.3484 75.4938 70.1124C73.6791 72.8904 71.2335 75.7879 70.3992 76.1475C69.3703 76.5913 66.2336 77.5566 65.1461 77.7642C63.4341 78.0913 62.2643 76.557 63.2307 75.2525C63.5216 74.8602 63.7594 74.4584 63.7594 74.3595C63.7594 74.2606 64.2106 73.5894 64.762 72.868C65.3134 72.1468 65.8531 71.2667 65.9613 70.9126C66.0695 70.5585 66.4066 69.863 66.7104 69.3672C70.0814 63.8642 65.8617 58.1578 60.901 61.5117C60.2725 61.9367 59.5605 62.3655 59.3187 62.4647C59.0768 62.5641 58.5587 63.1436 58.1671 63.7525C57.7755 64.3616 57.2644 65.0516 57.031 65.2857C56.6002 65.7182 54.9355 70.5752 54.4742 72.7462C54.0018 74.9692 53.4117 75.9301 52.358 76.1941C50.4287 76.6773 50.4715 74.282 52.4713 69.8824C52.8255 69.1032 53.1949 68.2044 53.2924 67.885C53.3898 67.5654 53.7338 66.9859 54.057 66.5972C55.8514 64.4378 57.1537 60.8258 56.6294 59.4628C56.0421 57.9355 52.4904 57.9839 48.3328 59.5754C46.8449 60.1448 44.4252 60.2651 43.5759 59.8115C43.0224 59.5159 40.2689 60.6378 40.2689 61.1588C40.2689 61.285 39.6444 62.4013 38.8811 63.6394C37.617 65.6898 37.0365 66.7242 35.1139 70.3529C34.7631 71.0148 34.3991 71.6144 34.3049 71.6853C34.2107 71.7561 33.7664 72.5144 33.3178 73.3702C30.5123 78.7226 28.5662 77.4569 30.3303 71.4277C31.0221 69.0626 31.7294 65.6875 31.7403 64.6987C31.7457 64.1852 32.0232 63.142 32.3567 62.3807C32.6946 61.6093 33.1554 59.6856 33.3978 58.0346C33.6368 56.4056 34.0005 54.4932 34.2063 53.7849C35.1245 50.6221 35.3643 49.6645 35.3625 49.1664C35.3617 48.8735 35.6428 47.5906 35.9874 46.3157C36.332 45.0408 36.7987 43.1284 37.0246 42.066C37.9684 37.6254 38.322 36.0687 39.2707 32.1806C39.8197 29.9308 40.2728 27.7867 40.2777 27.4158C40.2826 27.0446 40.5234 25.814 40.813 24.6807C41.1024 23.5475 41.6019 21.2874 41.923 19.6583C42.2442 18.0293 42.6381 16.2908 42.7989 15.795C44.4621 10.6626 44.3482 4.71348 42.5921 5.0107C42.5211 5.02281 41.9956 5.13768 41.424 5.26646ZM156.818 15.4627C154.56 15.755 153.869 17.5956 154.912 20.5356C155.912 23.3559 155.306 47.0183 154.135 50.823C153.852 51.7438 153.493 53.4467 153.337 54.6073C153.182 55.7679 152.87 57.3905 152.645 58.2131C152.168 59.9545 151.919 61.1792 151.408 64.2817C151.203 65.5219 150.807 67.3763 150.528 68.4027C150.248 69.4291 149.829 71.4277 149.598 72.8443C149.366 74.2609 148.847 76.5789 148.443 77.9955C147.423 81.5812 146.931 83.8513 146.479 87.0634C146.265 88.584 145.916 90.5762 145.704 91.4905C144.252 97.7369 144.342 100.906 146.017 102.528C148.805 105.229 152.745 102.777 153.613 97.8C154.339 93.6342 154.341 93.7037 153.504 92.3657C152.48 90.7282 152.361 89.2822 153.03 86.583C153.323 85.4013 153.656 83.6345 153.771 82.6568C154.065 80.1409 156.096 79.7569 159.761 81.5238C160.386 81.8251 161.866 82.2264 163.05 82.4155C164.234 82.6045 165.872 82.9834 166.689 83.2571C167.507 83.5307 168.989 83.9278 169.983 84.1395C170.977 84.351 172.952 84.787 174.371 85.1085C179.261 86.2155 181.23 86.0133 182.111 84.3142C182.709 83.1595 182.605 82.8528 181.247 81.7816C179.989 80.7897 179.453 80.5296 177.404 79.9158C175.856 79.452 176.488 78.1243 178.256 78.1243C178.49 78.1243 179.048 77.9656 179.495 77.7719C179.942 77.578 181.005 77.2066 181.857 76.9467C182.709 76.6866 183.697 76.2302 184.051 75.9322C184.406 75.6342 185.179 75.0843 185.769 74.7098C186.921 73.9783 186.726 73.968 189.688 74.9174C191.304 75.4353 195.111 75.3158 196.829 74.6933C199.154 73.8511 199.282 73.8722 200.823 75.3516C202.678 77.1324 205.861 77.2259 207.542 75.5487C207.613 75.4778 208.126 75.1886 208.682 74.9055C209.728 74.3732 212.386 71.5019 213.091 70.1425C213.312 69.7162 213.597 69.3672 213.725 69.3672C213.853 69.3672 214.208 68.7009 214.513 67.8863C214.819 67.0716 215.282 65.9997 215.544 65.5039C215.806 65.0081 216.314 63.9358 216.672 63.1214C217.151 62.0299 217.458 61.6405 217.838 61.6405C218.121 61.6405 218.425 61.5246 218.513 61.3829C218.713 61.0602 219.424 61.0566 219.93 61.3762C220.237 61.5696 220.25 61.6843 219.995 61.9387C219.819 62.1146 219.674 62.4582 219.674 62.7024C219.674 62.9466 219.401 63.474 219.067 63.8743C217.184 66.1308 216.966 71.5346 218.702 72.9025C219.539 73.5624 222.542 74.3379 224.837 74.4875C226.819 74.6166 227.585 74.792 228.831 75.4024C231.198 76.5622 232.497 76.4388 236.195 74.7031C236.55 74.5365 237.189 74.1514 237.615 73.8475C239.772 72.3081 240.682 72.2143 244.843 73.1029C247.063 73.5773 249.579 73.3398 250.812 72.5393C251.213 72.2795 251.631 72.2437 252.361 72.4064C253.625 72.6882 255.189 72.5123 255.578 72.0446C255.742 71.847 256.04 71.6853 256.239 71.6853C256.591 71.6853 260.877 67.5659 261.865 66.2765C262.137 65.9224 263.334 64.5895 264.526 63.3146C265.718 62.0397 266.884 60.6777 267.117 60.2883C268.053 58.7254 268.645 60.2097 268.787 64.4736C269.016 71.3559 275.768 75.5922 281.665 72.5533C284.924 70.8732 285.66 70.5917 287.378 70.3655C293.243 69.5942 296.736 64.0631 291.824 63.328C290.069 63.0655 289.761 62.452 290.168 60.0351C290.925 55.5407 287.167 53.5135 284.949 57.2197C284.639 57.7387 284.129 58.4532 283.817 58.8073C283.505 59.1615 283.03 59.8515 282.761 60.3408C282.492 60.8302 282.027 61.6057 281.727 62.0644C281.344 62.6486 281.125 63.5307 280.996 65.0106C280.748 67.8484 280.577 68.0795 278.734 68.0795C274.559 68.0795 273.092 64.7866 274.27 58.0547C275.275 52.3091 275.265 52.4003 274.963 51.393C274.545 50.0001 272.438 49.3134 270.962 50.0889C268.982 51.1287 266.989 52.6712 266.547 53.5065C265.771 54.9705 265.502 54.5298 265.421 51.6632C265.28 46.7036 260.886 47.6432 257.841 53.2835C257.607 53.7167 256.648 55.2741 255.711 56.7445C254.774 58.2147 254.002 59.5411 253.996 59.692C253.99 59.843 253.642 60.3676 253.222 60.858C252.802 61.3484 252.458 61.8473 252.458 61.9665C252.458 62.0861 252.11 62.554 251.684 63.0066C251.259 63.4594 250.728 64.2125 250.504 64.6802C249.773 66.2106 247.553 66.7543 247.553 65.4029C247.553 64.8919 247.667 64.4736 247.806 64.4736C247.945 64.4736 248.284 64.0391 248.558 63.5078C248.833 62.9767 249.311 62.2738 249.621 61.9462C249.931 61.6183 250.41 60.7115 250.686 59.9303C250.96 59.1494 251.472 58.0581 251.822 57.5051C253.881 54.2506 251.816 51.4473 247.831 52.0876C246.671 52.2741 245.845 52.271 245.074 52.0773C243.725 51.7381 239.658 51.9037 238.777 52.3336C237.652 52.8814 237.101 53.2502 236.318 53.9781C235.898 54.3678 235.486 54.6864 235.402 54.6864C235.045 54.6864 230.91 59.7899 230.479 60.7637C230.219 61.3502 229.828 61.9771 229.611 62.1571C229.394 62.3369 229.024 62.9028 228.79 63.4145C227.917 65.3228 225.849 66.2286 226.225 64.538C226.716 62.3323 226.711 61.4272 226.204 60.6968C225.925 60.295 225.445 59.4373 225.138 58.7906C224.574 57.6027 223.367 56.7469 222.256 56.7469C221.484 56.7469 219.466 56.0288 217.504 55.0557C213.703 53.1704 210.998 54.9895 211.887 58.8336C212.053 59.5491 212.188 60.4789 212.188 60.8997C212.188 61.7412 209.355 67.3699 208.574 68.0795C208.496 68.1503 208.066 68.678 207.618 69.2524C204.754 72.9275 203.104 69.9516 204.827 64.2161C205.061 63.4369 205.495 61.8143 205.792 60.6102C206.088 59.4062 206.531 58.1312 206.775 57.7771C208.982 54.5741 209.292 52.6792 207.773 51.6758C206.306 50.7074 204.76 51.4525 203.553 53.7092C202.243 56.1573 201.288 57.6213 200.648 58.1634C200.314 58.4467 199.948 59.0262 199.836 59.4512C199.443 60.9363 198.885 60.3905 198.983 58.6172C199.18 55.0701 197.404 53.5451 193.794 54.1599C192.192 54.4324 191.695 54.4185 190.321 54.0626C187.88 53.4303 185.176 54.1501 182.584 56.1218C182.132 56.4656 181.692 56.7469 181.606 56.7469C181.249 56.7469 177.933 60.5381 176.537 62.5419C174.403 65.6059 172.023 71.6013 172.31 73.1933C172.583 74.7088 173.536 76.4017 174.432 76.9609C177.213 78.6971 171.163 78.6749 167.824 76.9364C167.45 76.7417 166.833 76.5815 166.453 76.5805C164.8 76.5766 158.083 74.718 157.646 74.1434C156.353 72.4448 160.275 64.4355 166.226 56.6204C167.424 55.0483 169.081 52.6452 169.948 51.2248C170.212 50.7913 170.517 50.3787 170.625 50.3079C170.733 50.237 171.156 49.6557 171.564 49.016C172.573 47.4338 173.617 46.1223 175.117 44.5486C175.81 43.8205 176.682 42.8168 177.053 42.3179C178.019 41.0185 180.72 37.6743 181.416 36.9156C181.742 36.5609 182.497 35.5938 183.094 34.766C183.692 33.9384 184.529 32.8302 184.955 32.3035C185.381 31.7768 186.072 30.8024 186.491 30.1382C186.91 29.4739 187.345 28.9305 187.459 28.9305C187.572 28.9305 187.665 28.7801 187.665 28.5964C187.665 28.4128 188.188 27.4683 188.827 26.4978C189.466 25.5273 189.989 24.6055 189.989 24.4495C189.989 24.2934 190.283 23.8254 190.641 23.4094C190.999 22.9935 191.465 22.0083 191.677 21.2202C191.888 20.4321 192.156 19.4922 192.273 19.1319C192.849 17.3532 191.369 15.5521 189.324 15.5431C187.53 15.5353 186.867 16.2179 186.935 18.003C187.002 19.7696 186.816 20.0545 178.758 30.4758C174.791 35.6061 173.573 37.2442 173.061 38.1382C172.798 38.5985 172.502 38.9753 172.404 38.9753C172.306 38.9753 171.936 39.4677 171.582 40.0699C171.227 40.6721 170.584 41.6281 170.152 42.1948C168.085 44.9066 167.601 45.5144 166.829 46.3644C166.372 46.8677 165.617 47.757 165.151 48.3409C160.905 53.6634 159.831 52.7202 161.085 44.7704C161.219 43.9204 161.395 40.7911 161.476 37.8163C161.562 34.6341 161.79 31.5063 162.03 30.2183C163.372 23.0097 161.165 14.952 157.951 15.3211C157.754 15.3437 157.244 15.4073 156.818 15.4627ZM288.777 36.6287C285.7 38.7257 286.59 42.8387 290.121 42.8387C292.581 42.8387 293.71 41.2171 292.83 38.9472C291.966 36.718 290.16 35.6852 288.777 36.6287ZM224.564 40.8998C223.278 41.5975 222.516 44.8917 223.453 45.6996C224.972 47.0088 228.538 46.9019 229.065 45.5314C230.15 42.7114 227.068 39.5406 224.564 40.8998ZM241.257 58.4854C241.765 59.153 241.691 59.7554 240.971 60.8124C240.616 61.3337 240.321 62.1097 240.315 62.5373C240.292 64.1934 238.39 66.4962 235.418 68.4676C232.649 70.3045 232.117 69.2014 233.865 65.2463C234.272 64.3255 234.735 63.2178 234.894 62.7848C235.323 61.6201 238.029 59.0087 239.335 58.4993C240.76 57.9435 240.844 57.943 241.257 58.4854ZM187.577 60.5075C187.956 61.0849 187.971 61.2894 187.684 61.9884C187.501 62.4345 187.216 63.321 187.05 63.9585C185.761 68.9116 178.562 73.6237 179.645 68.8063C180.43 65.3091 183.183 61.4628 185.702 60.3447C187.086 59.7302 187.065 59.7284 187.577 60.5075ZM25.2933 65.1819C25.2876 65.9224 24.9944 66.7917 24.7504 66.7917C24.4864 66.7917 24.4381 65.1587 24.6947 64.903C25.0081 64.59 25.2969 64.7247 25.2933 65.1819ZM124.444 67.4623C124.633 67.6895 125.046 67.9733 125.361 68.0931C127.687 68.9752 127.266 74.0713 124.825 74.5771C123.352 74.8826 123.306 74.744 123.517 70.6764C123.706 67.0405 123.806 66.6948 124.444 67.4623ZM23.7837 69.7773C23.7321 71.0391 23.4128 73.1701 23.0738 74.5125C22.7346 75.8549 22.4574 77.4391 22.4574 78.0331C22.4574 80.2422 19.5466 82.9293 18.9196 81.2992C18.6827 80.6831 19.2237 77.8044 19.8187 76.515C20.0965 75.9126 20.5727 74.6315 20.8771 73.6677C21.1814 72.7039 21.6383 71.6927 21.8923 71.4205C22.1466 71.1483 22.5674 70.107 22.8276 69.1061C23.485 66.5766 23.9022 66.8694 23.7837 69.7773ZM108.859 70.8482C110.462 73.2865 110.472 74.2266 108.913 75.7478C107.064 77.5512 106.308 76.8058 106.504 73.3744C106.754 69.0059 107.278 68.4439 108.859 70.8482ZM93.7033 94.7157C93.7033 96.2142 93.5281 96.9261 93.1594 96.9261C93.0327 96.9261 92.9289 96.1148 92.9289 95.1232C92.9289 93.6922 93.0089 93.3202 93.3161 93.3202C93.6127 93.3202 93.7033 93.6471 93.7033 94.7157ZM92.2637 99.9671C92.2431 102.425 91.7831 104.395 91.2301 104.395C90.4505 104.395 90.4983 99.6706 91.2936 98.133C91.9669 96.8318 92.2851 97.4337 92.2637 99.9671Z" fill="#404040"/>
</svg>
